<svg width="592" height="129" viewBox="0 0 592 129" fill="none" xmlns="http://www.w3.org/2000/svg">
<g clip-path="url(#clip0_6020_415)">
<path d="M171.808 86.9999C166.034 86.9999 161.16 85.9917 157.194 83.9822C153.227 81.9727 149.823 79.1163 146.993 75.4265L155.65 65.7552C158.371 69.445 161.12 71.925 163.895 73.1952C166.67 74.4655 169.526 75.0972 172.471 75.0972C173.967 75.0972 175.314 74.9023 176.512 74.5192C177.703 74.1361 178.651 73.5649 179.341 72.8256C180.032 72.0796 180.384 71.1857 180.384 70.1372C180.384 69.3106 180.174 68.5645 179.761 67.9059C179.341 67.2472 178.773 66.6625 178.055 66.1719C177.331 65.6746 176.498 65.2175 175.557 64.8076C174.617 64.3976 173.574 64.0481 172.437 63.7726C171.3 63.497 170.149 63.2483 168.985 63.0265C165.763 62.3679 162.974 61.4942 160.619 60.4256C158.256 59.3502 156.287 58.0598 154.71 56.5409C153.126 55.0287 151.948 53.288 151.17 51.3322C150.391 49.3765 150.005 47.1586 150.005 44.6786C150.005 41.1501 151.021 38.0652 153.044 35.4172C155.068 32.7692 157.749 30.7059 161.079 29.2206C164.409 27.7353 168.017 26.9893 171.902 26.9893C177.561 26.9893 182.13 27.8831 185.596 29.6776C189.061 31.4721 191.823 33.9319 193.881 37.0773L185.054 45.5926C183.335 43.3882 181.379 41.7348 179.185 40.6326C176.992 39.5304 174.705 38.9793 172.315 38.9793C170.704 38.9793 169.29 39.1742 168.071 39.5573C166.853 39.9471 165.919 40.5116 165.282 41.2509C164.646 41.997 164.328 42.8908 164.328 43.9393C164.328 44.8197 164.592 45.6061 165.12 46.2916C165.648 46.9838 166.379 47.5753 167.327 48.0659C168.267 48.5632 169.35 48.9867 170.576 49.3496C171.794 49.7058 173.073 49.9948 174.407 50.2166C177.459 50.8215 180.221 51.6212 182.692 52.6159C185.162 53.6106 187.281 54.8338 189.061 56.2922C190.835 57.7507 192.209 59.4645 193.183 61.4203C194.151 63.376 194.639 65.6208 194.639 68.1546C194.639 72.1199 193.664 75.5139 191.728 78.3232C189.785 81.1326 187.091 83.2832 183.653 84.7685C180.208 86.2539 176.268 86.9999 171.828 86.9999H171.808Z" fill="white"/>
<path d="M218.18 87.0001C213.909 87.0001 210.065 86.0054 206.646 84.0227C203.228 82.0401 200.555 79.3248 198.612 75.877C196.669 72.4359 195.695 68.558 195.695 64.2634C195.695 59.9687 196.663 55.9295 198.612 52.4817C200.555 49.0406 203.235 46.3254 206.646 44.336C210.058 42.3466 213.903 41.3586 218.18 41.3586C222.12 41.3586 225.741 42.0643 229.044 43.469C232.348 44.8737 234.94 46.7891 236.828 49.2153L229.586 57.9793C228.862 57.0451 227.975 56.1916 226.919 55.4187C225.863 54.6458 224.699 54.0409 223.42 53.5973C222.14 53.1538 220.814 52.9387 219.426 52.9387C217.314 52.9387 215.459 53.4226 213.848 54.3837C212.237 55.3515 210.992 56.6822 210.099 58.396C209.212 60.1031 208.765 62.032 208.765 64.1827C208.765 66.3334 209.225 68.1615 210.139 69.8417C211.053 71.5219 212.319 72.8594 213.93 73.854C215.541 74.8487 217.341 75.3394 219.345 75.3394C220.786 75.3394 222.12 75.1444 223.338 74.7614C224.557 74.3783 225.68 73.8272 226.709 73.108C227.738 72.3889 228.692 71.5353 229.579 70.5474L236.822 79.3114C234.933 81.6234 232.3 83.485 228.909 84.8897C225.525 86.2944 221.944 87.0001 218.167 87.0001H218.18Z" fill="white"/>
<path d="M238.995 86.1733V25H252.234V51.2047L249.486 52.1994C250.095 50.2167 251.192 48.4088 252.776 46.7823C254.36 45.1559 256.255 43.8453 258.475 42.8573C260.695 41.8627 263.024 41.372 265.467 41.372C268.798 41.372 271.6 42.0441 273.874 43.395C276.148 44.7459 277.854 46.7554 278.998 49.4304C280.135 52.1053 280.704 55.3985 280.704 59.31V86.1733H267.302V60.298C267.302 58.5371 267.051 57.072 266.55 55.916C266.049 54.76 265.298 53.9064 264.303 53.3553C263.301 52.8042 262.056 52.5556 260.553 52.6093C259.389 52.6093 258.306 52.7908 257.304 53.147C256.302 53.5032 255.429 54.0274 254.685 54.7197C253.933 55.4119 253.365 56.1983 252.979 57.0787C252.586 57.9591 252.397 58.9538 252.397 60.056V86.1801H238.995V86.1733Z" fill="white"/>
<path d="M307.515 87C302.966 87 298.885 86.0188 295.277 84.063C291.669 82.1072 288.84 79.4055 286.782 75.9644C284.724 72.5233 283.702 68.6185 283.702 64.2701C283.702 59.9217 284.731 55.8488 286.782 52.4077C288.833 48.9666 291.662 46.2649 295.277 44.3091C298.885 42.3533 302.966 41.3721 307.515 41.3721C312.064 41.3721 316.213 42.3533 319.794 44.3091C323.374 46.2649 326.19 48.9666 328.241 52.4077C330.292 55.8488 331.321 59.8074 331.321 64.2701C331.321 68.7327 330.292 72.5233 328.241 75.9644C326.183 79.4122 323.367 82.1072 319.794 84.063C316.213 86.0188 312.118 87 307.515 87ZM307.515 75.5947C309.512 75.5947 311.272 75.0974 312.801 74.1094C314.324 73.1147 315.536 71.7705 316.423 70.0567C317.309 68.3496 317.722 66.4207 317.668 64.2701C317.722 62.0119 317.309 60.0158 316.423 58.275C315.536 56.5411 314.311 55.1902 312.761 54.2224C311.204 53.2613 309.458 52.7774 307.515 52.7774C305.572 52.7774 303.819 53.2747 302.269 54.2627C300.712 55.2574 299.494 56.6083 298.607 58.3154C297.721 60.0225 297.274 62.0119 297.274 64.2701C297.274 66.5283 297.721 68.3496 298.607 70.0567C299.494 71.7638 300.719 73.1147 302.269 74.1094C303.819 75.1041 305.572 75.5947 307.515 75.5947Z" fill="white"/>
<path d="M334.908 86.1733V25H348.31V86.1733H334.908Z" fill="white"/>
<path d="M367.128 86.9999C364.352 86.9999 361.841 86.4488 359.594 85.3466C357.347 84.2444 355.567 82.7187 354.267 80.7562C352.961 78.8005 352.311 76.5019 352.311 73.8539C352.311 71.5957 352.73 69.613 353.556 67.8992C354.389 66.1921 355.621 64.774 357.259 63.6449C358.897 62.5158 360.948 61.6623 363.418 61.0843C365.889 60.5063 368.759 60.2173 372.035 60.2173H385.437L384.686 68.5646H372.367C371.202 68.5646 370.174 68.6587 369.287 68.8536C368.4 69.0485 367.649 69.3509 367.04 69.7609C366.43 70.1709 365.97 70.6548 365.666 71.2059C365.361 71.757 365.205 72.4156 365.205 73.1885C365.205 74.0152 365.429 74.7343 365.869 75.3392C366.315 75.9441 366.911 76.4146 367.656 76.7439C368.407 77.0732 369.28 77.2412 370.282 77.2412C371.724 77.2412 373.098 77.006 374.404 76.5423C375.71 76.0718 376.875 75.3997 377.904 74.5193C378.932 73.6388 379.751 72.6173 380.361 71.4613L382.689 77.416C381.525 79.2911 380.124 80.9444 378.486 82.376C376.848 83.8075 375.074 84.9366 373.159 85.7633C371.243 86.59 369.233 87.0066 367.121 87.0066L367.128 86.9999ZM378.614 86.1733V59.2226C378.614 56.9644 377.992 55.2976 376.739 54.2223C375.494 53.1469 373.754 52.6092 371.534 52.6092C369.314 52.6092 367.439 53.0125 365.747 53.8056C364.055 54.6053 362.43 55.9159 360.873 57.7305L352.879 50.0419C355.546 47.3401 358.592 45.223 362.038 43.6772C365.476 42.1381 369.226 41.3652 373.274 41.3652C376.99 41.3652 380.212 41.9163 382.933 43.0186C385.654 44.1208 387.759 45.801 389.262 48.0592C390.757 50.3174 391.509 53.1872 391.509 56.6552V86.1665H378.601L378.614 86.1733Z" fill="white"/>
<path d="M397.012 86.1734V42.2794H409.75L410.333 56.5814L407.835 53.7721C408.559 51.4601 409.669 49.3632 411.165 47.4881C412.661 45.6129 414.455 44.1276 416.533 43.0254C418.618 41.9232 420.79 41.3721 423.071 41.3721C424.073 41.3721 425.001 41.4393 425.86 41.5804C426.72 41.7216 427.485 41.9232 428.148 42.1987L424.567 56.8301C423.958 56.5007 423.139 56.2117 422.11 55.9631C421.081 55.7144 420.012 55.5934 418.902 55.5934C417.684 55.5934 416.56 55.8018 415.531 56.2117C414.502 56.6284 413.615 57.2199 412.864 57.9861C412.113 58.759 411.531 59.6663 411.118 60.7147C410.705 61.7632 410.495 62.9461 410.495 64.2701V86.1734H397.005H397.012Z" fill="white"/>
<path d="M431.147 86.1733V28.3066H456.374C460.036 28.3066 463.312 29.1333 466.195 30.7866C469.079 32.44 471.36 34.6847 473.025 37.5209C474.69 40.3572 475.523 43.5966 475.523 47.2326C475.523 50.8686 474.69 54.2626 473.025 57.2333C471.36 60.2039 469.086 62.5495 466.195 64.2633C463.312 65.9704 460.036 66.8239 456.374 66.8239H445.381V86.1666H431.147V86.1733ZM445.219 54.3433H454.458C455.677 54.3433 456.773 54.0543 457.748 53.4763C458.716 52.8983 459.508 52.0851 460.124 51.0366C460.733 49.9882 461.038 48.8053 461.038 47.4813C461.038 46.1573 460.733 44.9206 460.124 43.9259C459.515 42.9312 458.723 42.1651 457.748 41.614C456.773 41.0628 455.677 40.7873 454.458 40.7873H445.219V54.3433Z" fill="white"/>
<path d="M500.5 87C495.951 87 491.869 86.0188 488.262 84.063C484.654 82.1072 481.825 79.4055 479.767 75.9644C477.709 72.5233 476.687 68.6185 476.687 64.2701C476.687 59.9217 477.716 55.8488 479.767 52.4077C481.818 48.9666 484.647 46.2649 488.262 44.3091C491.869 42.3533 495.951 41.3721 500.5 41.3721C505.048 41.3721 509.197 42.3533 512.778 44.3091C516.359 46.2649 519.175 48.9666 521.226 52.4077C523.277 55.8488 524.305 59.8074 524.305 64.2701C524.305 68.7327 523.277 72.5233 521.226 75.9644C519.168 79.4122 516.352 82.1072 512.778 84.063C509.197 86.0188 505.102 87 500.5 87ZM500.5 75.5947C502.496 75.5947 504.256 75.0974 505.786 74.1094C507.309 73.1147 508.521 71.7705 509.407 70.0567C510.294 68.3496 510.707 66.4207 510.653 64.2701C510.707 62.0119 510.294 60.0158 509.407 58.275C508.521 56.5411 507.295 55.1902 505.745 54.2224C504.189 53.2613 502.442 52.7774 500.5 52.7774C498.557 52.7774 496.804 53.2747 495.254 54.2627C493.697 55.2574 492.479 56.6083 491.592 58.3154C490.705 60.0225 490.258 62.0119 490.258 64.2701C490.258 66.5283 490.705 68.3496 491.592 70.0567C492.479 71.7638 493.704 73.1147 495.254 74.1094C496.804 75.1041 498.557 75.5947 500.5 75.5947Z" fill="white"/>
<path d="M527.893 86.1734V42.2794H540.632L541.214 56.5814L538.716 53.7721C539.441 51.4601 540.551 49.3632 542.047 47.4881C543.542 45.6129 545.336 44.1276 547.414 43.0254C549.499 41.9232 551.672 41.3721 553.953 41.3721C554.955 41.3721 555.882 41.4393 556.742 41.5804C557.601 41.7216 558.366 41.9232 559.029 42.1987L555.449 56.8301C554.839 56.5007 554.02 56.2117 552.992 55.9631C551.963 55.7144 550.893 55.5934 549.783 55.5934C548.565 55.5934 547.441 55.8018 546.412 56.2117C545.384 56.6284 544.497 57.2199 543.745 57.9861C542.994 58.759 542.412 59.6663 541.999 60.7147C541.586 61.7632 541.376 62.9461 541.376 64.2701V86.1734H527.886H527.893Z" fill="white"/>
<path d="M562.278 53.9332V42.2792H592V53.9332H562.278ZM570.103 86.1732V31.1965H583.505V86.1665H570.103V86.1732Z" fill="white"/>
</g>
<path d="M124.276 0H46.9114C34.7783 0 23.6005 6.59687 17.737 17.2181C5.47596 39.427 21.5432 66.6457 46.9114 66.6457H87.4894L124.276 0Z" fill="url(#paint0_linear_6020_415)"/>
<path d="M10.1586 108.886L0 128.718L50.9622 108.882H87.5271C99.6603 108.882 110.838 102.285 116.702 91.6642C128.963 69.4552 112.895 42.2366 87.5271 42.2366H46.9492L10.1586 108.886Z" fill="url(#paint1_linear_6020_415)"/>
<defs>
<linearGradient id="paint0_linear_6020_415" x1="68.9098" y1="0" x2="68.9098" y2="66.6494" gradientUnits="userSpaceOnUse">
<stop stop-color="white"/>
<stop offset="1" stop-color="#C4C4C4"/>
</linearGradient>
<linearGradient id="paint1_linear_6020_415" x1="60.4519" y1="42.2366" x2="60.4519" y2="128.723" gradientUnits="userSpaceOnUse">
<stop stop-color="white"/>
<stop offset="1" stop-color="#C4C4C4"/>
</linearGradient>
<clipPath id="clip0_6020_415">
<rect width="445" height="62" fill="white" transform="translate(147 25)"/>
</clipPath>
</defs>
</svg>
